<svg width="1280" height="640" viewBox="0 0 1280 640" fill="none" xmlns="http://www.w3.org/2000/svg" role="img" aria-labelledby="title desc">
  <title id="title">y2k-ui GitHub banner option 2</title>
  <desc id="desc">A pastel Y2K sticker desktop banner for y2k-ui, surrounded by custom UI component icons.</desc>
  <defs>
    <pattern id="checker" width="40" height="40" patternUnits="userSpaceOnUse">
      <rect width="20" height="20" fill="#ffffff" fill-opacity="0.55"/>
      <rect x="20" y="20" width="20" height="20" fill="#ffffff" fill-opacity="0.55"/>
    </pattern>
    <pattern id="dots" width="30" height="30" patternUnits="userSpaceOnUse">
      <circle cx="4" cy="4" r="2" fill="#1b1b3a" fill-opacity="0.16"/>
    </pattern>
  </defs>

  <rect width="1280" height="640" fill="#8ed1fc"/>
  <rect width="1280" height="640" fill="url(#checker)" opacity="0.35"/>
  <rect width="1280" height="640" fill="url(#dots)" opacity="0.55"/>

  <path d="M102 94C153 38 254 53 292 122C331 194 284 283 206 294C123 306 57 245 61 171C63 139 78 120 102 94Z" fill="#ff8fcf" stroke="#1b1b3a" stroke-width="5"/>
  <path d="M1015 70C1081 27 1181 61 1201 137C1224 224 1144 295 1061 276C985 259 951 112 1015 70Z" fill="#ffe45e" stroke="#1b1b3a" stroke-width="5"/>
  <path d="M944 458C1004 394 1125 411 1160 493C1193 571 1132 633 1049 621C962 609 889 516 944 458Z" fill="#b69cff" stroke="#1b1b3a" stroke-width="5"/>
  <path d="M93 443C145 386 239 415 253 493C269 585 185 639 106 606C35 577 39 502 93 443Z" fill="#8ff0d0" stroke="#1b1b3a" stroke-width="5"/>

  <g transform="translate(315 112)">
    <rect x="0" y="0" width="650" height="352" rx="12" fill="#ffffff" stroke="#1b1b3a" stroke-width="6"/>
    <rect x="0" y="0" width="650" height="54" rx="12" fill="#ff8fcf" stroke="#1b1b3a" stroke-width="6"/>
    <rect x="0" y="43" width="650" height="15" fill="#ff8fcf"/>
    <rect x="24" y="17" width="20" height="20" rx="4" fill="#ffffff" stroke="#1b1b3a" stroke-width="4"/>
    <rect x="54" y="17" width="20" height="20" rx="4" fill="#ffffff" stroke="#1b1b3a" stroke-width="4"/>
    <rect x="84" y="17" width="20" height="20" rx="4" fill="#ffffff" stroke="#1b1b3a" stroke-width="4"/>
    <path d="M29 30H39" stroke="#1b1b3a" stroke-width="4" stroke-linecap="round"/>
    <rect x="59" y="22" width="10" height="10" stroke="#1b1b3a" stroke-width="3"/>
    <path d="M89 21L99 31M99 21L89 31" stroke="#1b1b3a" stroke-width="3.5" stroke-linecap="round"/>

    <text x="325" y="184" text-anchor="middle" font-family="Arial Black, Arial, Helvetica, sans-serif" font-size="112" font-weight="900" fill="#1b1b3a" letter-spacing="-5">y2k-ui</text>
    <text x="325" y="226" text-anchor="middle" font-family="Arial, Helvetica, sans-serif" font-size="22" font-weight="800" fill="#1b1b3a">pastel components, thick outlines, zero glass</text>

    <rect x="88" y="266" width="122" height="40" rx="7" fill="#ffe45e" stroke="#1b1b3a" stroke-width="4"/>
    <text x="149" y="292" text-anchor="middle" font-family="Arial, Helvetica, sans-serif" font-size="16" font-weight="900" fill="#1b1b3a">Button</text>
    <rect x="232" y="266" width="88" height="40" rx="20" fill="#8ff0d0" stroke="#1b1b3a" stroke-width="4"/>
    <circle cx="294" cy="286" r="13" fill="#ffe45e" stroke="#1b1b3a" stroke-width="4"/>
    <rect x="346" y="266" width="146" height="40" rx="7" fill="#ffffff" stroke="#1b1b3a" stroke-width="4"/>
    <text x="404" y="292" font-family="Arial, Helvetica, sans-serif" font-size="16" font-weight="900" fill="#1b1b3a">Select</text>
    <path d="M462 280L473 291L484 280" stroke="#1b1b3a" stroke-width="4" stroke-linecap="round" stroke-linejoin="round"/>
    <rect x="518" y="266" width="54" height="40" rx="7" fill="#b69cff" stroke="#1b1b3a" stroke-width="4"/>
    <path d="M532 287L541 296L559 276" stroke="#1b1b3a" stroke-width="5" stroke-linecap="round" stroke-linejoin="round"/>
  </g>

  <g transform="translate(96 350)">
    <rect x="0" y="0" width="190" height="140" rx="10" fill="#ffffff" stroke="#1b1b3a" stroke-width="5"/>
    <rect x="18" y="18" width="154" height="52" rx="6" fill="#d7dde8" stroke="#1b1b3a" stroke-width="4"/>
    <rect x="34" y="30" width="70" height="16" rx="3" fill="#ff8fcf" stroke="#1b1b3a" stroke-width="3"/>
    <rect x="34" y="88" width="122" height="20" rx="4" fill="#8ed1fc" stroke="#1b1b3a" stroke-width="3"/>
    <text x="95" y="130" text-anchor="middle" font-family="Arial, Helvetica, sans-serif" font-size="15" font-weight="900" fill="#1b1b3a">Card</text>
  </g>

  <g transform="translate(1000 338)">
    <rect x="0" y="0" width="170" height="146" rx="10" fill="#ffffff" stroke="#1b1b3a" stroke-width="5"/>
    <circle cx="85" cy="62" r="38" fill="#8ed1fc" stroke="#1b1b3a" stroke-width="5"/>
    <circle cx="85" cy="62" r="12" fill="#ffffff" stroke="#1b1b3a" stroke-width="4"/>
    <path d="M70 96H100" stroke="#1b1b3a" stroke-width="5" stroke-linecap="round"/>
    <text x="85" y="128" text-anchor="middle" font-family="Arial, Helvetica, sans-serif" font-size="15" font-weight="900" fill="#1b1b3a">Avatar</text>
  </g>

  <g transform="translate(152 94)">
    <path d="M0 0L96 48L58 58L78 104L56 114L36 68L8 96L0 0Z" fill="#ffffff" stroke="#1b1b3a" stroke-width="5" stroke-linejoin="round"/>
  </g>

  <g transform="translate(1095 102)">
    <rect x="0" y="0" width="76" height="88" rx="8" fill="#ffffff" stroke="#1b1b3a" stroke-width="5"/>
    <rect x="14" y="12" width="48" height="22" rx="4" fill="#b69cff" stroke="#1b1b3a" stroke-width="4"/>
    <rect x="20" y="52" width="36" height="20" rx="4" fill="#8ff0d0" stroke="#1b1b3a" stroke-width="4"/>
  </g>

  <path d="M1066 248L1076 273L1102 276L1082 292L1088 318L1066 304L1044 318L1050 292L1030 276L1056 273L1066 248Z" fill="#ff8fcf" stroke="#1b1b3a" stroke-width="4" stroke-linejoin="round"/>
  <path d="M245 516L253 536L274 538L258 552L263 573L245 562L227 573L232 552L216 538L237 536L245 516Z" fill="#ffe45e" stroke="#1b1b3a" stroke-width="4" stroke-linejoin="round"/>
  <path d="M1183 297C1183 309 1173 319 1161 319C1149 319 1139 309 1139 297C1139 285 1149 275 1161 275C1173 275 1183 285 1183 297Z" fill="#8ff0d0" stroke="#1b1b3a" stroke-width="5"/>
</svg>
