<svg width="1280" height="640" viewBox="0 0 1280 640" fill="none" xmlns="http://www.w3.org/2000/svg" role="img" aria-labelledby="title desc">
  <title id="title">y2k-ui GitHub banner option 3</title>
  <desc id="desc">A Y2K component orbit banner with y2k-ui in the center and custom component icons around it.</desc>
  <defs>
    <linearGradient id="soft" x1="0" y1="0" x2="1280" y2="640" gradientUnits="userSpaceOnUse">
      <stop stop-color="#ffe45e"/>
      <stop offset="0.36" stop-color="#ff8fcf"/>
      <stop offset="0.7" stop-color="#b69cff"/>
      <stop offset="1" stop-color="#8ed1fc"/>
    </linearGradient>
    <pattern id="stripes" width="18" height="18" patternUnits="userSpaceOnUse" patternTransform="rotate(45)">
      <rect width="7" height="18" fill="#ffffff" fill-opacity="0.28"/>
    </pattern>
  </defs>

  <rect width="1280" height="640" fill="url(#soft)"/>
  <rect width="1280" height="640" fill="url(#stripes)" opacity="0.7"/>
  <rect x="44" y="44" width="1192" height="552" rx="18" fill="#f8f1ff" stroke="#1b1b3a" stroke-width="6"/>

  <ellipse cx="640" cy="320" rx="432" ry="188" stroke="#1b1b3a" stroke-width="4" stroke-dasharray="18 14" opacity="0.55"/>
  <ellipse cx="640" cy="320" rx="344" ry="140" stroke="#1b1b3a" stroke-width="4" stroke-dasharray="10 12" opacity="0.38"/>

  <g transform="translate(388 182)">
    <rect x="0" y="0" width="504" height="276" rx="14" fill="#ffffff" stroke="#1b1b3a" stroke-width="6"/>
    <rect x="0" y="0" width="504" height="50" rx="14" fill="#8ff0d0" stroke="#1b1b3a" stroke-width="6"/>
    <rect x="0" y="39" width="504" height="14" fill="#8ff0d0"/>
    <rect x="420" y="15" width="18" height="18" rx="4" fill="#ffffff" stroke="#1b1b3a" stroke-width="4"/>
    <rect x="448" y="15" width="18" height="18" rx="4" fill="#ffffff" stroke="#1b1b3a" stroke-width="4"/>
    <rect x="476" y="15" width="18" height="18" rx="4" fill="#ffffff" stroke="#1b1b3a" stroke-width="4"/>
    <path d="M425 27H433" stroke="#1b1b3a" stroke-width="4" stroke-linecap="round"/>
    <rect x="453" y="20" width="8" height="8" stroke="#1b1b3a" stroke-width="3"/>
    <path d="M480 19L490 29M490 19L480 29" stroke="#1b1b3a" stroke-width="3" stroke-linecap="round"/>
    <text x="252" y="144" text-anchor="middle" font-family="Arial Black, Arial, Helvetica, sans-serif" font-size="96" font-weight="900" letter-spacing="-4" fill="#1b1b3a">y2k-ui</text>
    <text x="252" y="184" text-anchor="middle" font-family="Arial, Helvetica, sans-serif" font-size="21" font-weight="800" fill="#1b1b3a">React components with sticker-window energy</text>
  </g>

  <g transform="translate(156 150) rotate(-8 90 55)">
    <rect width="180" height="110" rx="10" fill="#ffe45e" stroke="#1b1b3a" stroke-width="5"/>
    <rect x="20" y="24" width="140" height="16" rx="4" fill="#ffffff" stroke="#1b1b3a" stroke-width="3"/>
    <rect x="20" y="58" width="84" height="24" rx="5" fill="#ff8fcf" stroke="#1b1b3a" stroke-width="3"/>
    <text x="126" y="76" font-family="Arial, Helvetica, sans-serif" font-size="15" font-weight="900" fill="#1b1b3a">Alert</text>
  </g>

  <g transform="translate(945 126) rotate(8 100 70)">
    <rect width="210" height="122" rx="10" fill="#ffffff" stroke="#1b1b3a" stroke-width="5"/>
    <rect x="22" y="24" width="166" height="28" rx="7" fill="#8ed1fc" stroke="#1b1b3a" stroke-width="4"/>
    <rect x="22" y="68" width="92" height="28" rx="7" fill="#ffe45e" stroke="#1b1b3a" stroke-width="4"/>
    <text x="142" y="88" font-family="Arial, Helvetica, sans-serif" font-size="16" font-weight="900" fill="#1b1b3a">Tabs</text>
  </g>

  <g transform="translate(168 407) rotate(7 110 55)">
    <rect width="220" height="92" rx="46" fill="#ffffff" stroke="#1b1b3a" stroke-width="5"/>
    <rect x="18" y="17" width="58" height="58" rx="29" fill="#ff8fcf" stroke="#1b1b3a" stroke-width="5"/>
    <text x="126" y="54" font-family="Arial, Helvetica, sans-serif" font-size="18" font-weight="900" fill="#1b1b3a">Avatar</text>
  </g>

  <g transform="translate(930 410) rotate(-7 120 60)">
    <rect width="240" height="118" rx="10" fill="#d7dde8" stroke="#1b1b3a" stroke-width="5"/>
    <rect x="24" y="34" width="192" height="26" rx="7" fill="#ffffff" stroke="#1b1b3a" stroke-width="4"/>
    <rect x="28" y="38" width="116" height="18" rx="4" fill="#8ed1fc"/>
    <text x="120" y="88" text-anchor="middle" font-family="Arial, Helvetica, sans-serif" font-size="17" font-weight="900" fill="#1b1b3a">Progress</text>
  </g>

  <g transform="translate(536 78)">
    <rect x="0" y="0" width="208" height="52" rx="26" fill="#8ff0d0" stroke="#1b1b3a" stroke-width="5"/>
    <circle cx="160" cy="26" r="18" fill="#ffe45e" stroke="#1b1b3a" stroke-width="5"/>
    <text x="70" y="33" text-anchor="middle" font-family="Arial, Helvetica, sans-serif" font-size="17" font-weight="900" fill="#1b1b3a">Switch</text>
  </g>

  <g transform="translate(520 506)">
    <rect width="240" height="58" rx="9" fill="#ffffff" stroke="#1b1b3a" stroke-width="5"/>
    <text x="34" y="36" font-family="Arial, Helvetica, sans-serif" font-size="18" font-weight="900" fill="#1b1b3a">Select</text>
    <path d="M196 22L212 38L228 22" stroke="#1b1b3a" stroke-width="5" stroke-linecap="round" stroke-linejoin="round"/>
  </g>

  <g transform="translate(232 70)">
    <path d="M18 0L28 28L58 28L34 45L44 74L18 57L-8 74L2 45L-22 28H8L18 0Z" fill="#ffffff" stroke="#1b1b3a" stroke-width="4" stroke-linejoin="round"/>
  </g>
  <g transform="translate(1050 275)">
    <path d="M0 0L70 34L42 43L57 78L39 87L24 52L4 72L0 0Z" fill="#ffffff" stroke="#1b1b3a" stroke-width="5" stroke-linejoin="round"/>
  </g>
  <g transform="translate(224 292)">
    <path d="M32 0C51 0 64 14 64 31C64 61 32 78 32 78C32 78 0 61 0 31C0 14 13 0 32 0Z" fill="#ff8fcf" stroke="#1b1b3a" stroke-width="5"/>
  </g>
  <g transform="translate(840 74)">
    <rect width="96" height="96" rx="14" fill="#ffffff" stroke="#1b1b3a" stroke-width="5"/>
    <rect x="20" y="18" width="56" height="30" rx="5" fill="#b69cff" stroke="#1b1b3a" stroke-width="4"/>
    <rect x="28" y="62" width="40" height="16" rx="4" fill="#8ff0d0" stroke="#1b1b3a" stroke-width="4"/>
  </g>
</svg>
