<svg width="1280" height="640" viewBox="0 0 1280 640" fill="none" xmlns="http://www.w3.org/2000/svg" role="img" aria-labelledby="title desc">
  <title id="title">y2k-ui GitHub banner option 4</title>
  <desc id="desc">A Y2K pixel-console banner for y2k-ui with custom icons and component cards.</desc>
  <defs>
    <pattern id="mini-grid" width="24" height="24" patternUnits="userSpaceOnUse">
      <path d="M24 0H0V24" stroke="#1b1b3a" stroke-opacity="0.1" stroke-width="2"/>
    </pattern>
    <pattern id="spark" width="90" height="90" patternUnits="userSpaceOnUse">
      <path d="M45 18L51 38L72 45L51 52L45 72L39 52L18 45L39 38L45 18Z" fill="#ffffff" fill-opacity="0.4"/>
    </pattern>
  </defs>

  <rect width="1280" height="640" fill="#d7dde8"/>
  <rect width="1280" height="640" fill="url(#mini-grid)"/>
  <rect width="1280" height="640" fill="url(#spark)" opacity="0.75"/>

  <rect x="72" y="66" width="1136" height="508" rx="16" fill="#ffffff" stroke="#1b1b3a" stroke-width="7"/>
  <rect x="72" y="66" width="1136" height="64" rx="16" fill="#b69cff" stroke="#1b1b3a" stroke-width="7"/>
  <rect x="72" y="116" width="1136" height="20" fill="#b69cff"/>
  <rect x="100" y="88" width="24" height="24" rx="5" fill="#ff8fcf" stroke="#1b1b3a" stroke-width="4"/>
  <rect x="136" y="88" width="24" height="24" rx="5" fill="#ff8fcf" stroke="#1b1b3a" stroke-width="4"/>
  <rect x="172" y="88" width="24" height="24" rx="5" fill="#ff8fcf" stroke="#1b1b3a" stroke-width="4"/>
  <path d="M106 104H118" stroke="#1b1b3a" stroke-width="4" stroke-linecap="round"/>
  <rect x="142" y="94" width="12" height="12" stroke="#1b1b3a" stroke-width="3"/>
  <path d="M178 93L190 105M190 93L178 105" stroke="#1b1b3a" stroke-width="3.5" stroke-linecap="round"/>
  <text x="1096" y="106" text-anchor="end" font-family="Arial, Helvetica, sans-serif" font-size="18" font-weight="900" fill="#1b1b3a">github/banner.svg</text>

  <g transform="translate(164 184)">
    <rect width="310" height="254" rx="12" fill="#1b1b3a" stroke="#1b1b3a" stroke-width="5"/>
    <rect x="16" y="16" width="278" height="222" rx="8" fill="#f8f1ff"/>
    <text x="38" y="62" font-family="Courier New, monospace" font-size="22" font-weight="700" fill="#1b1b3a">$ npx y2kui</text>
    <rect x="38" y="84" width="204" height="14" rx="4" fill="#ff8fcf"/>
    <rect x="38" y="116" width="234" height="14" rx="4" fill="#8ed1fc"/>
    <rect x="38" y="148" width="184" height="14" rx="4" fill="#8ff0d0"/>
    <rect x="38" y="180" width="220" height="14" rx="4" fill="#ffe45e"/>
    <rect x="38" y="212" width="22" height="14" fill="#1b1b3a"/>
  </g>

  <g transform="translate(525 170)">
    <text x="0" y="112" font-family="Arial Black, Arial, Helvetica, sans-serif" font-size="118" font-weight="900" letter-spacing="-4" fill="#1b1b3a">y2k-ui</text>
    <text x="6" y="158" font-family="Arial, Helvetica, sans-serif" font-size="25" font-weight="800" fill="#1b1b3a">flat retro components for modern apps</text>
    <rect x="8" y="198" width="430" height="34" rx="7" fill="#ffffff" stroke="#1b1b3a" stroke-width="4"/>
    <rect x="12" y="202" width="272" height="26" rx="4" fill="#8ed1fc"/>
  </g>

  <g transform="translate(535 450)">
    <rect x="0" y="0" width="116" height="42" rx="7" fill="#ffe45e" stroke="#1b1b3a" stroke-width="4"/>
    <text x="58" y="27" text-anchor="middle" font-family="Arial, Helvetica, sans-serif" font-size="15" font-weight="900" fill="#1b1b3a">Button</text>
    <rect x="132" y="0" width="92" height="42" rx="7" fill="#ff8fcf" stroke="#1b1b3a" stroke-width="4"/>
    <text x="178" y="27" text-anchor="middle" font-family="Arial, Helvetica, sans-serif" font-size="15" font-weight="900" fill="#1b1b3a">Badge</text>
    <rect x="240" y="0" width="102" height="42" rx="21" fill="#8ff0d0" stroke="#1b1b3a" stroke-width="4"/>
    <circle cx="313" cy="21" r="14" fill="#ffe45e" stroke="#1b1b3a" stroke-width="4"/>
  </g>

  <g transform="translate(970 198)">
    <rect width="150" height="150" rx="12" fill="#8ed1fc" stroke="#1b1b3a" stroke-width="5"/>
    <path d="M36 34H114V88H36V34Z" fill="#ffffff" stroke="#1b1b3a" stroke-width="4"/>
    <path d="M52 104H98" stroke="#1b1b3a" stroke-width="5" stroke-linecap="round"/>
    <path d="M75 88V104" stroke="#1b1b3a" stroke-width="5" stroke-linecap="round"/>
    <text x="75" y="132" text-anchor="middle" font-family="Arial, Helvetica, sans-serif" font-size="15" font-weight="900" fill="#1b1b3a">UI</text>
  </g>

  <g transform="translate(976 390)">
    <rect width="146" height="82" rx="10" fill="#ffffff" stroke="#1b1b3a" stroke-width="5"/>
    <rect x="20" y="22" width="106" height="18" rx="5" fill="#d7dde8" stroke="#1b1b3a" stroke-width="3"/>
    <rect x="23" y="25" width="68" height="12" rx="3" fill="#b69cff"/>
    <text x="73" y="62" text-anchor="middle" font-family="Arial, Helvetica, sans-serif" font-size="14" font-weight="900" fill="#1b1b3a">Progress</text>
  </g>

  <g transform="translate(132 462)">
    <rect width="96" height="96" rx="12" fill="#ffe45e" stroke="#1b1b3a" stroke-width="5"/>
    <path d="M24 28H72V66H24V28Z" fill="#ffffff" stroke="#1b1b3a" stroke-width="4"/>
    <path d="M34 42L45 54L64 34" stroke="#1b1b3a" stroke-width="6" stroke-linecap="round" stroke-linejoin="round"/>
  </g>

  <g transform="translate(260 482)">
    <path d="M0 0L86 42L53 53L72 95L51 105L33 63L8 88L0 0Z" fill="#ffffff" stroke="#1b1b3a" stroke-width="5" stroke-linejoin="round"/>
  </g>
  <path d="M1124 110L1134 136L1162 139L1140 157L1147 185L1124 170L1101 185L1108 157L1086 139L1114 136L1124 110Z" fill="#ffe45e" stroke="#1b1b3a" stroke-width="4" stroke-linejoin="round"/>
  <path d="M88 190L100 220L132 224L107 244L114 276L88 259L61 276L69 244L44 224L76 220L88 190Z" fill="#8ff0d0" stroke="#1b1b3a" stroke-width="4" stroke-linejoin="round"/>
</svg>
